<?xml version="1.0" encoding="UTF-8" standalone="no"?>
<!DOCTYPE svg PUBLIC "-//W3C//DTD SVG 1.1//EN"
 "http://www.w3.org/Graphics/SVG/1.1/DTD/svg11.dtd">
<!-- Generated by graphviz version 2.40.1 (20161225.0304)
 -->
<!-- Title: callgraph Pages: 1 -->
<svg width="507pt" height="206pt"
 viewBox="0.00 0.00 507.00 206.00" xmlns="http://www.w3.org/2000/svg" xmlns:xlink="http://www.w3.org/1999/xlink">
<g id="graph0" class="graph" transform="scale(1 1) rotate(0) translate(4 202)">
<title>callgraph</title>
<polygon fill="#ffffff" stroke="transparent" points="-4,4 -4,-202 503,-202 503,4 -4,4"/>
<!-- External code -->
<g id="node1" class="node">
<title>External code</title>
<polygon fill="none" stroke="#000000" points="92,-117 0,-117 0,-81 92,-81 92,-117"/>
<text text-anchor="middle" x="46" y="-95.3" font-family="Times,serif" font-size="14.00" fill="#000000">External code</text>
</g>
<!-- Get control variable size :: bump_get_cv_size -->
<g id="node2" class="node">
<title>Get control variable size :: bump_get_cv_size</title>
<polygon fill="none" stroke="#000000" points="447,-198 180,-198 180,-162 447,-162 447,-198"/>
<text text-anchor="middle" x="313.5" y="-176.3" font-family="Times,serif" font-size="14.00" fill="#000000">Get control variable size :: bump_get_cv_size</text>
</g>
<!-- External code&#45;&gt;Get control variable size :: bump_get_cv_size -->
<g id="edge1" class="edge">
<title>External code&#45;&gt;Get control variable size :: bump_get_cv_size</title>
<path fill="none" stroke="#000000" d="M67.8505,-117.25C83.5825,-129.3808 105.8541,-144.577 128,-153 141.346,-158.0761 155.5662,-162.2053 169.9688,-165.5631"/>
<polygon fill="#000000" stroke="#000000" points="169.4413,-169.0308 179.9605,-167.7666 170.9489,-162.195 169.4413,-169.0308"/>
</g>
<!-- Apply NICAS square&#45;root :: bump%apply_nicas_sqrt -->
<g id="node3" class="node">
<title>Apply NICAS square&#45;root :: bump%apply_nicas_sqrt</title>
<polygon fill="none" stroke="#000000" points="468.5,-144 158.5,-144 158.5,-108 468.5,-108 468.5,-144"/>
<text text-anchor="middle" x="313.5" y="-122.3" font-family="Times,serif" font-size="14.00" fill="#000000">Apply NICAS square&#45;root :: bump%apply_nicas_sqrt</text>
</g>
<!-- External code&#45;&gt;Apply NICAS square&#45;root :: bump%apply_nicas_sqrt -->
<g id="edge2" class="edge">
<title>External code&#45;&gt;Apply NICAS square&#45;root :: bump%apply_nicas_sqrt</title>
<path fill="none" stroke="#000000" d="M92.2896,-103.6722C108.5457,-105.313 127.8713,-107.2636 148.23,-109.3185"/>
<polygon fill="#000000" stroke="#000000" points="147.9974,-112.8128 158.2984,-110.3348 148.7005,-105.8482 147.9974,-112.8128"/>
</g>
<!-- Apply NICAS square&#45;root adjoint :: bump%apply_nicas_sqrt_ad -->
<g id="node4" class="node">
<title>Apply NICAS square&#45;root adjoint :: bump%apply_nicas_sqrt_ad</title>
<polygon fill="none" stroke="#000000" points="499,-90 128,-90 128,-54 499,-54 499,-90"/>
<text text-anchor="middle" x="313.5" y="-68.3" font-family="Times,serif" font-size="14.00" fill="#000000">Apply NICAS square&#45;root adjoint :: bump%apply_nicas_sqrt_ad</text>
</g>
<!-- External code&#45;&gt;Apply NICAS square&#45;root adjoint :: bump%apply_nicas_sqrt_ad -->
<g id="edge3" class="edge">
<title>External code&#45;&gt;Apply NICAS square&#45;root adjoint :: bump%apply_nicas_sqrt_ad</title>
<path fill="none" stroke="#000000" d="M92.2896,-94.3278C102.2196,-93.3255 113.295,-92.2076 125.0517,-91.021"/>
<polygon fill="#000000" stroke="#000000" points="125.4793,-94.4957 135.0773,-90.009 124.7763,-87.5311 125.4793,-94.4957"/>
</g>
<!-- Apply NICAS :: bump%apply_nicas -->
<g id="node5" class="node">
<title>Apply NICAS :: bump%apply_nicas</title>
<polygon fill="none" stroke="#000000" points="422.5,-36 204.5,-36 204.5,0 422.5,0 422.5,-36"/>
<text text-anchor="middle" x="313.5" y="-14.3" font-family="Times,serif" font-size="14.00" fill="#000000">Apply NICAS :: bump%apply_nicas</text>
</g>
<!-- External code&#45;&gt;Apply NICAS :: bump%apply_nicas -->
<g id="edge4" class="edge">
<title>External code&#45;&gt;Apply NICAS :: bump%apply_nicas</title>
<path fill="none" stroke="#000000" d="M67.8505,-80.75C83.5825,-68.6192 105.8541,-53.423 128,-45 148.8003,-37.0888 171.7239,-31.4775 194.1523,-27.5019"/>
<polygon fill="#000000" stroke="#000000" points="194.7832,-30.9451 204.0682,-25.8423 193.6276,-24.0411 194.7832,-30.9451"/>
</g>
</g>
</svg>
