<?xml version="1.0" encoding="UTF-8" standalone="no"?>
<!DOCTYPE svg PUBLIC "-//W3C//DTD SVG 1.1//EN"
 "http://www.w3.org/Graphics/SVG/1.1/DTD/svg11.dtd">
<!-- Generated by graphviz version 2.40.1 (20161225.0304)
 -->
<!-- Title: callgraph Pages: 1 -->
<svg width="522pt" height="206pt"
 viewBox="0.00 0.00 522.00 206.00" xmlns="http://www.w3.org/2000/svg" xmlns:xlink="http://www.w3.org/1999/xlink">
<g id="graph0" class="graph" transform="scale(1 1) rotate(0) translate(4 202)">
<title>callgraph</title>
<polygon fill="#ffffff" stroke="transparent" points="-4,4 -4,-202 518,-202 518,4 -4,4"/>
<!-- External code -->
<g id="node1" class="node">
<title>External code</title>
<polygon fill="none" stroke="#000000" points="92,-117 0,-117 0,-81 92,-81 92,-117"/>
<text text-anchor="middle" x="46" y="-95.3" font-family="Times,serif" font-size="14.00" fill="#000000">External code</text>
</g>
<!-- Apply vertical balance :: bump%apply_vbal -->
<g id="node2" class="node">
<title>Apply vertical balance :: bump%apply_vbal</title>
<polygon fill="none" stroke="#000000" points="450,-198 192,-198 192,-162 450,-162 450,-198"/>
<text text-anchor="middle" x="321" y="-176.3" font-family="Times,serif" font-size="14.00" fill="#000000">Apply vertical balance :: bump%apply_vbal</text>
</g>
<!-- External code&#45;&gt;Apply vertical balance :: bump%apply_vbal -->
<g id="edge1" class="edge">
<title>External code&#45;&gt;Apply vertical balance :: bump%apply_vbal</title>
<path fill="none" stroke="#000000" d="M67.4976,-117.0267C83.2408,-129.2179 105.6714,-144.5783 128,-153 145.0394,-159.4268 163.4457,-164.3446 181.8909,-168.104"/>
<polygon fill="#000000" stroke="#000000" points="181.3502,-171.5641 191.832,-170.0207 182.6755,-164.6907 181.3502,-171.5641"/>
</g>
<!-- Apply vertical balance inverse :: bump%apply_vbal_inv -->
<g id="node3" class="node">
<title>Apply vertical balance inverse :: bump%apply_vbal_inv</title>
<polygon fill="none" stroke="#000000" points="483.5,-144 158.5,-144 158.5,-108 483.5,-108 483.5,-144"/>
<text text-anchor="middle" x="321" y="-122.3" font-family="Times,serif" font-size="14.00" fill="#000000">Apply vertical balance inverse :: bump%apply_vbal_inv</text>
</g>
<!-- External code&#45;&gt;Apply vertical balance inverse :: bump%apply_vbal_inv -->
<g id="edge2" class="edge">
<title>External code&#45;&gt;Apply vertical balance inverse :: bump%apply_vbal_inv</title>
<path fill="none" stroke="#000000" d="M92.0288,-103.5192C108.3224,-105.1189 127.7522,-107.0266 148.307,-109.0447"/>
<polygon fill="#000000" stroke="#000000" points="148.1849,-112.5494 158.4791,-110.0434 148.8689,-105.5829 148.1849,-112.5494"/>
</g>
<!-- Apply vertical balance adjoint :: bump%apply_vbal_ad -->
<g id="node4" class="node">
<title>Apply vertical balance adjoint :: bump%apply_vbal_ad</title>
<polygon fill="none" stroke="#000000" points="480.5,-90 161.5,-90 161.5,-54 480.5,-54 480.5,-90"/>
<text text-anchor="middle" x="321" y="-68.3" font-family="Times,serif" font-size="14.00" fill="#000000">Apply vertical balance adjoint :: bump%apply_vbal_ad</text>
</g>
<!-- External code&#45;&gt;Apply vertical balance adjoint :: bump%apply_vbal_ad -->
<g id="edge3" class="edge">
<title>External code&#45;&gt;Apply vertical balance adjoint :: bump%apply_vbal_ad</title>
<path fill="none" stroke="#000000" d="M92.0288,-94.4808C109.1335,-92.8014 129.6945,-90.7827 151.3848,-88.6531"/>
<polygon fill="#000000" stroke="#000000" points="151.8116,-92.1282 161.4217,-87.6677 151.1275,-85.1616 151.8116,-92.1282"/>
</g>
<!-- Apply vertical balance inverse adjoint :: bump%apply_vbal_inv_ad -->
<g id="node5" class="node">
<title>Apply vertical balance inverse adjoint :: bump%apply_vbal_inv_ad</title>
<polygon fill="none" stroke="#000000" points="514,-36 128,-36 128,0 514,0 514,-36"/>
<text text-anchor="middle" x="321" y="-14.3" font-family="Times,serif" font-size="14.00" fill="#000000">Apply vertical balance inverse adjoint :: bump%apply_vbal_inv_ad</text>
</g>
<!-- External code&#45;&gt;Apply vertical balance inverse adjoint :: bump%apply_vbal_inv_ad -->
<g id="edge4" class="edge">
<title>External code&#45;&gt;Apply vertical balance inverse adjoint :: bump%apply_vbal_inv_ad</title>
<path fill="none" stroke="#000000" d="M67.4976,-80.9733C83.2408,-68.7821 105.6714,-53.4217 128,-45 133.9207,-42.7669 140.0065,-40.7159 146.2016,-38.8324"/>
<polygon fill="#000000" stroke="#000000" points="147.376,-42.1366 156.0187,-36.0085 145.4408,-35.4094 147.376,-42.1366"/>
</g>
</g>
</svg>
