<?xml version="1.0" encoding="UTF-8" standalone="no"?>
<!DOCTYPE svg PUBLIC "-//W3C//DTD SVG 1.1//EN"
 "http://www.w3.org/Graphics/SVG/1.1/DTD/svg11.dtd">
<!-- Generated by graphviz version 2.40.1 (20161225.0304)
 -->
<!-- Title: callgraph Pages: 1 -->
<svg width="490pt" height="98pt"
 viewBox="0.00 0.00 490.00 98.00" xmlns="http://www.w3.org/2000/svg" xmlns:xlink="http://www.w3.org/1999/xlink">
<g id="graph0" class="graph" transform="scale(1 1) rotate(0) translate(4 94)">
<title>callgraph</title>
<polygon fill="#ffffff" stroke="transparent" points="-4,4 -4,-94 486,-94 486,4 -4,4"/>
<!-- External code -->
<g id="node1" class="node">
<title>External code</title>
<polygon fill="none" stroke="#000000" points="92,-63 0,-63 0,-27 92,-27 92,-63"/>
<text text-anchor="middle" x="46" y="-41.3" font-family="Times,serif" font-size="14.00" fill="#000000">External code</text>
</g>
<!-- Apply observation operator :: bump%apply_obsop -->
<g id="node2" class="node">
<title>Apply observation operator :: bump%apply_obsop</title>
<polygon fill="none" stroke="#000000" points="451.5,-90 158.5,-90 158.5,-54 451.5,-54 451.5,-90"/>
<text text-anchor="middle" x="305" y="-68.3" font-family="Times,serif" font-size="14.00" fill="#000000">Apply observation operator :: bump%apply_obsop</text>
</g>
<!-- External code&#45;&gt;Apply observation operator :: bump%apply_obsop -->
<g id="edge1" class="edge">
<title>External code&#45;&gt;Apply observation operator :: bump%apply_obsop</title>
<path fill="none" stroke="#000000" d="M92.0056,-49.7959C108.3703,-51.5019 127.8362,-53.5312 148.2482,-55.6591"/>
<polygon fill="#000000" stroke="#000000" points="148.0262,-59.1548 158.3352,-56.7106 148.752,-52.1925 148.0262,-59.1548"/>
</g>
<!-- Apply observation operator adjoint :: bump%apply_obsop_ad -->
<g id="node3" class="node">
<title>Apply observation operator adjoint :: bump%apply_obsop_ad</title>
<polygon fill="none" stroke="#000000" points="482,-36 128,-36 128,0 482,0 482,-36"/>
<text text-anchor="middle" x="305" y="-14.3" font-family="Times,serif" font-size="14.00" fill="#000000">Apply observation operator adjoint :: bump%apply_obsop_ad</text>
</g>
<!-- External code&#45;&gt;Apply observation operator adjoint :: bump%apply_obsop_ad -->
<g id="edge2" class="edge">
<title>External code&#45;&gt;Apply observation operator adjoint :: bump%apply_obsop_ad</title>
<path fill="none" stroke="#000000" d="M92.0056,-40.2041C101.1873,-39.2469 111.3453,-38.1879 122.0989,-37.0669"/>
<polygon fill="#000000" stroke="#000000" points="122.548,-40.5392 132.1311,-36.0211 121.8221,-33.5769 122.548,-40.5392"/>
</g>
</g>
</svg>
