<?xml version="1.0" encoding="UTF-8" standalone="no"?>
<!DOCTYPE svg PUBLIC "-//W3C//DTD SVG 1.1//EN"
 "http://www.w3.org/Graphics/SVG/1.1/DTD/svg11.dtd">
<!-- Generated by graphviz version 2.40.1 (20161225.0304)
 -->
<!-- Title: callgraph Pages: 1 -->
<svg width="920pt" height="962pt"
 viewBox="0.00 0.00 920.00 962.00" xmlns="http://www.w3.org/2000/svg" xmlns:xlink="http://www.w3.org/1999/xlink">
<g id="graph0" class="graph" transform="scale(1 1) rotate(0) translate(4 958)">
<title>callgraph</title>
<polygon fill="#ffffff" stroke="transparent" points="-4,4 -4,-958 916,-958 916,4 -4,4"/>
<!-- Run drivers :: bump%run_drivers -->
<g id="node1" class="node">
<title>Run drivers :: bump%run_drivers</title>
<polygon fill="none" stroke="#000000" points="201,-522 0,-522 0,-486 201,-486 201,-522"/>
<text text-anchor="middle" x="100.5" y="-500.3" font-family="Times,serif" font-size="14.00" fill="#000000">Run drivers :: bump%run_drivers</text>
</g>
<!-- Finalize ensemble 1 :: ens1%remove_mean -->
<g id="node2" class="node">
<title>Finalize ensemble 1 :: ens1%remove_mean</title>
<polygon fill="none" stroke="#000000" points="502,-954 246,-954 246,-918 502,-918 502,-954"/>
<text text-anchor="middle" x="374" y="-932.3" font-family="Times,serif" font-size="14.00" fill="#000000">Finalize ensemble 1 :: ens1%remove_mean</text>
</g>
<!-- Run drivers :: bump%run_drivers&#45;&gt;Finalize ensemble 1 :: ens1%remove_mean -->
<g id="edge1" class="edge">
<title>Run drivers :: bump%run_drivers&#45;&gt;Finalize ensemble 1 :: ens1%remove_mean</title>
<path fill="none" stroke="#000000" d="M104.0992,-522.092C118.678,-593.5735 175.5074,-855.0504 237,-909 238.1674,-910.0242 239.3622,-911.0141 240.5822,-911.9707"/>
<polygon fill="#000000" stroke="#000000" points="238.7713,-914.9745 248.979,-917.8125 242.769,-909.2283 238.7713,-914.9745"/>
</g>
<!-- Finalize ensemble 2 :: ens2%remove_mean -->
<g id="node3" class="node">
<title>Finalize ensemble 2 :: ens2%remove_mean</title>
<polygon fill="none" stroke="#000000" points="502,-900 246,-900 246,-864 502,-864 502,-900"/>
<text text-anchor="middle" x="374" y="-878.3" font-family="Times,serif" font-size="14.00" fill="#000000">Finalize ensemble 2 :: ens2%remove_mean</text>
</g>
<!-- Run drivers :: bump%run_drivers&#45;&gt;Finalize ensemble 2 :: ens2%remove_mean -->
<g id="edge2" class="edge">
<title>Run drivers :: bump%run_drivers&#45;&gt;Finalize ensemble 2 :: ens2%remove_mean</title>
<path fill="none" stroke="#000000" d="M101.6889,-522.3986C106.5281,-581.1077 129.9859,-765.366 237,-855 238.3735,-856.1504 239.7819,-857.2569 241.222,-858.3211"/>
<polygon fill="#000000" stroke="#000000" points="239.5174,-861.3893 249.7947,-863.9639 243.3661,-855.5422 239.5174,-861.3893"/>
</g>
<!-- If new vertical balance required -->
<g id="node4" class="node">
<title>If new vertical balance required</title>
<polygon fill="none" stroke="#000000" points="469,-846 279,-846 279,-810 469,-810 469,-846"/>
<text text-anchor="middle" x="374" y="-824.3" font-family="Times,serif" font-size="14.00" fill="#000000">If new vertical balance required</text>
</g>
<!-- Run drivers :: bump%run_drivers&#45;&gt;If new vertical balance required -->
<g id="edge3" class="edge">
<title>Run drivers :: bump%run_drivers&#45;&gt;If new vertical balance required</title>
<path fill="none" stroke="#000000" d="M103.0708,-522.1785C111.507,-574.6413 143.3918,-727.2507 237,-801 246.5212,-808.5013 257.5493,-814.1023 269.1324,-818.2593"/>
<polygon fill="#000000" stroke="#000000" points="268.3806,-821.6939 278.972,-821.4215 270.5224,-815.0296 268.3806,-821.6939"/>
</g>
<!-- If vertical balance reading required -->
<g id="node6" class="node">
<title>If vertical balance reading required</title>
<polygon fill="none" stroke="#000000" points="478,-792 270,-792 270,-756 478,-756 478,-792"/>
<text text-anchor="middle" x="374" y="-770.3" font-family="Times,serif" font-size="14.00" fill="#000000">If vertical balance reading required</text>
</g>
<!-- Run drivers :: bump%run_drivers&#45;&gt;If vertical balance reading required -->
<g id="edge5" class="edge">
<title>Run drivers :: bump%run_drivers&#45;&gt;If vertical balance reading required</title>
<path fill="none" stroke="#000000" d="M105.0282,-522.1625C117.4591,-567.994 156.6606,-688.8174 237,-747 244.1327,-752.1656 251.9999,-756.4088 260.2495,-759.8874"/>
<polygon fill="#000000" stroke="#000000" points="259.1166,-763.2013 269.7072,-763.4985 261.6135,-756.6617 259.1166,-763.2013"/>
</g>
<!-- If vertical balance test required -->
<g id="node8" class="node">
<title>If vertical balance test required</title>
<polygon fill="none" stroke="#000000" points="467,-738 281,-738 281,-702 467,-702 467,-738"/>
<text text-anchor="middle" x="374" y="-716.3" font-family="Times,serif" font-size="14.00" fill="#000000">If vertical balance test required</text>
</g>
<!-- Run drivers :: bump%run_drivers&#45;&gt;If vertical balance test required -->
<g id="edge7" class="edge">
<title>Run drivers :: bump%run_drivers&#45;&gt;If vertical balance test required</title>
<path fill="none" stroke="#000000" d="M107.9547,-522.0493C124.7712,-560.3445 169.5269,-649.7567 237,-693 247.3877,-699.6574 259.0599,-704.7349 271.0953,-708.5976"/>
<polygon fill="#000000" stroke="#000000" points="270.2271,-711.9903 280.8078,-711.4419 272.1945,-705.2724 270.2271,-711.9903"/>
</g>
<!-- If new HDIAG required -->
<g id="node10" class="node">
<title>If new HDIAG required</title>
<polygon fill="none" stroke="#000000" points="448,-684 300,-684 300,-648 448,-648 448,-684"/>
<text text-anchor="middle" x="374" y="-662.3" font-family="Times,serif" font-size="14.00" fill="#000000">If new HDIAG required</text>
</g>
<!-- Run drivers :: bump%run_drivers&#45;&gt;If new HDIAG required -->
<g id="edge9" class="edge">
<title>Run drivers :: bump%run_drivers&#45;&gt;If new HDIAG required</title>
<path fill="none" stroke="#000000" d="M113.2488,-522.2508C134.9847,-551.8617 182.2198,-609.9755 237,-639 253.1764,-647.5708 271.7303,-653.4345 289.8515,-657.4425"/>
<polygon fill="#000000" stroke="#000000" points="289.3586,-660.914 299.8565,-659.4836 290.7579,-654.0552 289.3586,-660.914"/>
</g>
<!-- If new LCT required -->
<g id="node13" class="node">
<title>If new LCT required</title>
<polygon fill="none" stroke="#000000" points="439,-630 309,-630 309,-594 439,-594 439,-630"/>
<text text-anchor="middle" x="374" y="-608.3" font-family="Times,serif" font-size="14.00" fill="#000000">If new LCT required</text>
</g>
<!-- Run drivers :: bump%run_drivers&#45;&gt;If new LCT required -->
<g id="edge12" class="edge">
<title>Run drivers :: bump%run_drivers&#45;&gt;If new LCT required</title>
<path fill="none" stroke="#000000" d="M125.3297,-522.2964C151.7155,-540.8592 195.3009,-569.0624 237,-585 256.5575,-592.475 278.512,-597.9794 299.0202,-601.9921"/>
<polygon fill="#000000" stroke="#000000" points="298.4826,-605.4521 308.9547,-603.8442 299.7656,-598.5707 298.4826,-605.4521"/>
</g>
<!-- If C matrix loading required -->
<g id="node16" class="node">
<title>If C matrix loading required</title>
<polygon fill="none" stroke="#000000" points="459.5,-576 288.5,-576 288.5,-540 459.5,-540 459.5,-576"/>
<text text-anchor="middle" x="374" y="-554.3" font-family="Times,serif" font-size="14.00" fill="#000000">If C matrix loading required</text>
</g>
<!-- Run drivers :: bump%run_drivers&#45;&gt;If C matrix loading required -->
<g id="edge15" class="edge">
<title>Run drivers :: bump%run_drivers&#45;&gt;If C matrix loading required</title>
<path fill="none" stroke="#000000" d="M191.544,-522.0178C206.7235,-525.0193 222.3063,-528.0989 237,-531 250.3966,-533.645 264.5305,-536.4333 278.4288,-539.1736"/>
<polygon fill="#000000" stroke="#000000" points="278.0051,-542.6574 288.4933,-541.1578 279.3591,-535.7896 278.0051,-542.6574"/>
</g>
<!-- If C matrix setting from namelist required -->
<g id="node18" class="node">
<title>If C matrix setting from namelist required</title>
<polygon fill="none" stroke="#000000" points="498,-522 250,-522 250,-486 498,-486 498,-522"/>
<text text-anchor="middle" x="374" y="-500.3" font-family="Times,serif" font-size="14.00" fill="#000000">If C matrix setting from namelist required</text>
</g>
<!-- Run drivers :: bump%run_drivers&#45;&gt;If C matrix setting from namelist required -->
<g id="edge17" class="edge">
<title>Run drivers :: bump%run_drivers&#45;&gt;If C matrix setting from namelist required</title>
<path fill="none" stroke="#000000" d="M201.1761,-504C213.6752,-504 226.6074,-504 239.5126,-504"/>
<polygon fill="#000000" stroke="#000000" points="239.8479,-507.5001 249.8478,-504 239.8478,-500.5001 239.8479,-507.5001"/>
</g>
<!-- If parameters have been set from external code -->
<g id="node20" class="node">
<title>If parameters have been set from external code</title>
<polygon fill="none" stroke="#000000" points="511,-468 237,-468 237,-432 511,-432 511,-468"/>
<text text-anchor="middle" x="374" y="-446.3" font-family="Times,serif" font-size="14.00" fill="#000000">If parameters have been set from external code</text>
</g>
<!-- Run drivers :: bump%run_drivers&#45;&gt;If parameters have been set from external code -->
<g id="edge19" class="edge">
<title>Run drivers :: bump%run_drivers&#45;&gt;If parameters have been set from external code</title>
<path fill="none" stroke="#000000" d="M191.544,-485.9822C206.7235,-482.9807 222.3063,-479.9011 237,-477 248.5199,-474.7255 260.5851,-472.3451 272.5768,-469.9803"/>
<polygon fill="#000000" stroke="#000000" points="273.485,-473.3687 282.619,-468.0002 272.1308,-466.5009 273.485,-473.3687"/>
</g>
<!-- If new NICAS required -->
<g id="node24" class="node">
<title>If new NICAS required</title>
<polygon fill="none" stroke="#000000" points="446.5,-414 301.5,-414 301.5,-378 446.5,-378 446.5,-414"/>
<text text-anchor="middle" x="374" y="-392.3" font-family="Times,serif" font-size="14.00" fill="#000000">If new NICAS required</text>
</g>
<!-- Run drivers :: bump%run_drivers&#45;&gt;If new NICAS required -->
<g id="edge23" class="edge">
<title>Run drivers :: bump%run_drivers&#45;&gt;If new NICAS required</title>
<path fill="none" stroke="#000000" d="M125.3297,-485.7036C151.7155,-467.1408 195.3009,-438.9376 237,-423 254.1002,-416.4642 273.0329,-411.4349 291.2291,-407.592"/>
<polygon fill="#000000" stroke="#000000" points="292.1325,-410.9805 301.2459,-405.5771 290.7521,-404.118 292.1325,-410.9805"/>
</g>
<!-- If NICAS loading required -->
<g id="node26" class="node">
<title>If NICAS loading required</title>
<polygon fill="none" stroke="#000000" points="455.5,-360 292.5,-360 292.5,-324 455.5,-324 455.5,-360"/>
<text text-anchor="middle" x="374" y="-338.3" font-family="Times,serif" font-size="14.00" fill="#000000">If NICAS loading required</text>
</g>
<!-- Run drivers :: bump%run_drivers&#45;&gt;If NICAS loading required -->
<g id="edge25" class="edge">
<title>Run drivers :: bump%run_drivers&#45;&gt;If NICAS loading required</title>
<path fill="none" stroke="#000000" d="M113.2488,-485.7492C134.9847,-456.1383 182.2198,-398.0245 237,-369 251.0142,-361.5748 266.8128,-356.1814 282.5685,-352.2662"/>
<polygon fill="#000000" stroke="#000000" points="283.396,-355.6673 292.3568,-350.0145 281.8267,-348.8455 283.396,-355.6673"/>
</g>
<!-- If NICAS test required -->
<g id="node28" class="node">
<title>If NICAS test required</title>
<polygon fill="none" stroke="#000000" points="444.5,-306 303.5,-306 303.5,-270 444.5,-270 444.5,-306"/>
<text text-anchor="middle" x="374" y="-284.3" font-family="Times,serif" font-size="14.00" fill="#000000">If NICAS test required</text>
</g>
<!-- Run drivers :: bump%run_drivers&#45;&gt;If NICAS test required -->
<g id="edge27" class="edge">
<title>Run drivers :: bump%run_drivers&#45;&gt;If NICAS test required</title>
<path fill="none" stroke="#000000" d="M107.9547,-485.9507C124.7712,-447.6555 169.5269,-358.2433 237,-315 253.7619,-304.2574 273.8684,-297.6286 293.4487,-293.5797"/>
<polygon fill="#000000" stroke="#000000" points="294.1202,-297.0149 303.3092,-291.7411 292.837,-290.1335 294.1202,-297.0149"/>
</g>
<!-- If new observation operator required -->
<g id="node30" class="node">
<title>If new observation operator required</title>
<polygon fill="none" stroke="#000000" points="482,-252 266,-252 266,-216 482,-216 482,-252"/>
<text text-anchor="middle" x="374" y="-230.3" font-family="Times,serif" font-size="14.00" fill="#000000">If new observation operator required</text>
</g>
<!-- Run drivers :: bump%run_drivers&#45;&gt;If new observation operator required -->
<g id="edge29" class="edge">
<title>Run drivers :: bump%run_drivers&#45;&gt;If new observation operator required</title>
<path fill="none" stroke="#000000" d="M105.0282,-485.8375C117.4591,-440.006 156.6606,-319.1826 237,-261 243.0068,-256.6498 249.5345,-252.9538 256.3729,-249.8176"/>
<polygon fill="#000000" stroke="#000000" points="257.9739,-252.9428 265.8707,-245.8793 255.2927,-246.4766 257.9739,-252.9428"/>
</g>
<!-- If observation operator loading required -->
<g id="node32" class="node">
<title>If observation operator loading required</title>
<polygon fill="none" stroke="#000000" points="491,-198 257,-198 257,-162 491,-162 491,-198"/>
<text text-anchor="middle" x="374" y="-176.3" font-family="Times,serif" font-size="14.00" fill="#000000">If observation operator loading required</text>
</g>
<!-- Run drivers :: bump%run_drivers&#45;&gt;If observation operator loading required -->
<g id="edge31" class="edge">
<title>Run drivers :: bump%run_drivers&#45;&gt;If observation operator loading required</title>
<path fill="none" stroke="#000000" d="M103.0708,-485.8215C111.507,-433.3587 143.3918,-280.7493 237,-207 240.4276,-204.2995 244.0505,-201.8454 247.8243,-199.6162"/>
<polygon fill="#000000" stroke="#000000" points="249.6876,-202.5898 256.8828,-194.813 246.4083,-196.4054 249.6876,-202.5898"/>
</g>
<!-- If observation operator test required -->
<g id="node34" class="node">
<title>If observation operator test required</title>
<polygon fill="none" stroke="#000000" points="480,-144 268,-144 268,-108 480,-108 480,-144"/>
<text text-anchor="middle" x="374" y="-122.3" font-family="Times,serif" font-size="14.00" fill="#000000">If observation operator test required</text>
</g>
<!-- Run drivers :: bump%run_drivers&#45;&gt;If observation operator test required -->
<g id="edge33" class="edge">
<title>Run drivers :: bump%run_drivers&#45;&gt;If observation operator test required</title>
<path fill="none" stroke="#000000" d="M101.6889,-485.6014C106.5281,-426.8923 129.9859,-242.634 237,-153 243.5452,-147.5178 250.8824,-143.033 258.6699,-139.3749"/>
<polygon fill="#000000" stroke="#000000" points="260.138,-142.5545 267.998,-135.4502 257.4233,-136.1023 260.138,-142.5545"/>
</g>
<!-- Close listings -->
<g id="node36" class="node">
<title>Close listings</title>
<polygon fill="none" stroke="#000000" points="419,-90 329,-90 329,-54 419,-54 419,-90"/>
<text text-anchor="middle" x="374" y="-68.3" font-family="Times,serif" font-size="14.00" fill="#000000">Close listings</text>
</g>
<!-- Run drivers :: bump%run_drivers&#45;&gt;Close listings -->
<g id="edge35" class="edge">
<title>Run drivers :: bump%run_drivers&#45;&gt;Close listings</title>
<path fill="none" stroke="#000000" d="M104.0992,-485.908C118.678,-414.4265 175.5074,-152.9496 237,-99 259.1374,-79.5781 291.1148,-72.5089 318.6085,-70.4424"/>
<polygon fill="#000000" stroke="#000000" points="319.1023,-73.9207 328.8963,-69.88 318.7202,-66.9312 319.1023,-73.9207"/>
</g>
<!-- Run vertical balance driver :: vbal%run_vbal -->
<g id="node5" class="node">
<title>Run vertical balance driver :: vbal%run_vbal</title>
<polygon fill="none" stroke="#000000" points="861,-954 598,-954 598,-918 861,-918 861,-954"/>
<text text-anchor="middle" x="729.5" y="-932.3" font-family="Times,serif" font-size="14.00" fill="#000000">Run vertical balance driver :: vbal%run_vbal</text>
</g>
<!-- If new vertical balance required&#45;&gt;Run vertical balance driver :: vbal%run_vbal -->
<g id="edge4" class="edge">
<title>If new vertical balance required&#45;&gt;Run vertical balance driver :: vbal%run_vbal</title>
<path fill="none" stroke="#000000" d="M469.2495,-836.6375C484.0188,-840.7672 498.4999,-846.6542 511,-855 534.989,-871.0165 522.6358,-893.5602 547,-909 559.4195,-916.8703 573.2533,-922.7862 587.5949,-927.1956"/>
<polygon fill="#000000" stroke="#000000" points="587.0192,-930.6696 597.5936,-930.013 588.9177,-923.932 587.0192,-930.6696"/>
</g>
<!-- Read vertical balance :: vbal%read -->
<g id="node7" class="node">
<title>Read vertical balance :: vbal%read</title>
<polygon fill="none" stroke="#000000" points="833,-900 626,-900 626,-864 833,-864 833,-900"/>
<text text-anchor="middle" x="729.5" y="-878.3" font-family="Times,serif" font-size="14.00" fill="#000000">Read vertical balance :: vbal%read</text>
</g>
<!-- If vertical balance reading required&#45;&gt;Read vertical balance :: vbal%read -->
<g id="edge6" class="edge">
<title>If vertical balance reading required&#45;&gt;Read vertical balance :: vbal%read</title>
<path fill="none" stroke="#000000" d="M478.1335,-785.3553C489.7774,-789.2409 501.0201,-794.3368 511,-801 534.989,-817.0165 522.6358,-839.5602 547,-855 567.4491,-867.9587 591.7324,-875.6189 615.8032,-879.9797"/>
<polygon fill="#000000" stroke="#000000" points="615.2966,-883.4433 625.7298,-881.5995 616.424,-876.5346 615.2966,-883.4433"/>
</g>
<!-- Run vertical balance tests driver :: vbal%run_vbal_tests -->
<g id="node9" class="node">
<title>Run vertical balance tests driver :: vbal%run_vbal_tests</title>
<polygon fill="none" stroke="#000000" points="890,-846 569,-846 569,-810 890,-810 890,-846"/>
<text text-anchor="middle" x="729.5" y="-824.3" font-family="Times,serif" font-size="14.00" fill="#000000">Run vertical balance tests driver :: vbal%run_vbal_tests</text>
</g>
<!-- If vertical balance test required&#45;&gt;Run vertical balance tests driver :: vbal%run_vbal_tests -->
<g id="edge8" class="edge">
<title>If vertical balance test required&#45;&gt;Run vertical balance tests driver :: vbal%run_vbal_tests</title>
<path fill="none" stroke="#000000" d="M467.1037,-728.0503C482.6127,-732.2032 497.895,-738.2503 511,-747 534.989,-763.0165 522.6358,-785.5602 547,-801 551.0962,-803.5958 555.3462,-805.9789 559.7175,-808.1656"/>
<polygon fill="#000000" stroke="#000000" points="558.3041,-811.368 568.8502,-812.383 561.2389,-805.0129 558.3041,-811.368"/>
</g>
<!-- Run HDIAG driver :: hdiag%run_hdiag -->
<g id="node11" class="node">
<title>Run HDIAG driver :: hdiag%run_hdiag</title>
<polygon fill="none" stroke="#000000" points="846.5,-792 612.5,-792 612.5,-756 846.5,-756 846.5,-792"/>
<text text-anchor="middle" x="729.5" y="-770.3" font-family="Times,serif" font-size="14.00" fill="#000000">Run HDIAG driver :: hdiag%run_hdiag</text>
</g>
<!-- If new HDIAG required&#45;&gt;Run HDIAG driver :: hdiag%run_hdiag -->
<g id="edge10" class="edge">
<title>If new HDIAG required&#45;&gt;Run HDIAG driver :: hdiag%run_hdiag</title>
<path fill="none" stroke="#000000" d="M448.154,-669.8608C469.7899,-673.7217 492.5522,-680.6832 511,-693 534.989,-709.0165 522.6358,-731.5602 547,-747 563.6636,-757.5599 582.8733,-764.6013 602.4394,-769.2061"/>
<polygon fill="#000000" stroke="#000000" points="601.8648,-772.6624 612.3763,-771.3366 603.3323,-765.8179 601.8648,-772.6624"/>
</g>
<!-- Copy HDIAG into C matrix :: cmat%from_hdiag -->
<g id="node12" class="node">
<title>Copy HDIAG into C matrix :: cmat%from_hdiag</title>
<polygon fill="none" stroke="#000000" points="873.5,-738 585.5,-738 585.5,-702 873.5,-702 873.5,-738"/>
<text text-anchor="middle" x="729.5" y="-716.3" font-family="Times,serif" font-size="14.00" fill="#000000">Copy HDIAG into C matrix :: cmat%from_hdiag</text>
</g>
<!-- If new HDIAG required&#45;&gt;Copy HDIAG into C matrix :: cmat%from_hdiag -->
<g id="edge11" class="edge">
<title>If new HDIAG required&#45;&gt;Copy HDIAG into C matrix :: cmat%from_hdiag</title>
<path fill="none" stroke="#000000" d="M448.0639,-677.6914C478.6809,-682.49 514.5427,-688.0663 547,-693 562.9959,-695.4314 579.785,-697.9546 596.4316,-700.4387"/>
<polygon fill="#000000" stroke="#000000" points="596.363,-703.967 606.7697,-701.9791 597.3948,-697.0435 596.363,-703.967"/>
</g>
<!-- Run LCT driver :: lct%run_lct -->
<g id="node14" class="node">
<title>Run LCT driver :: lct%run_lct</title>
<polygon fill="none" stroke="#000000" points="821,-684 638,-684 638,-648 821,-648 821,-684"/>
<text text-anchor="middle" x="729.5" y="-662.3" font-family="Times,serif" font-size="14.00" fill="#000000">Run LCT driver :: lct%run_lct</text>
</g>
<!-- If new LCT required&#45;&gt;Run LCT driver :: lct%run_lct -->
<g id="edge13" class="edge">
<title>If new LCT required&#45;&gt;Run LCT driver :: lct%run_lct</title>
<path fill="none" stroke="#000000" d="M439.2907,-622.3151C471.6756,-627.3997 511.3871,-633.5867 547,-639 573.1126,-642.9692 601.3394,-647.183 627.6087,-651.0718"/>
<polygon fill="#000000" stroke="#000000" points="627.1679,-654.5446 637.5724,-652.5451 628.1919,-647.6199 627.1679,-654.5446"/>
</g>
<!-- Copy LCT into C matrix :: cmat%from_lct -->
<g id="node15" class="node">
<title>Copy LCT into C matrix :: cmat%from_lct</title>
<polygon fill="none" stroke="#000000" points="856.5,-630 602.5,-630 602.5,-594 856.5,-594 856.5,-630"/>
<text text-anchor="middle" x="729.5" y="-608.3" font-family="Times,serif" font-size="14.00" fill="#000000">Copy LCT into C matrix :: cmat%from_lct</text>
</g>
<!-- If new LCT required&#45;&gt;Copy LCT into C matrix :: cmat%from_lct -->
<g id="edge14" class="edge">
<title>If new LCT required&#45;&gt;Copy LCT into C matrix :: cmat%from_lct</title>
<path fill="none" stroke="#000000" d="M439.2042,-612C482.0452,-612 539.7039,-612 592.3443,-612"/>
<polygon fill="#000000" stroke="#000000" points="592.4544,-615.5001 602.4543,-612 592.4543,-608.5001 592.4544,-615.5001"/>
</g>
<!-- Read C matrix :: cmat%read -->
<g id="node17" class="node">
<title>Read C matrix :: cmat%read</title>
<polygon fill="none" stroke="#000000" points="816.5,-576 642.5,-576 642.5,-540 816.5,-540 816.5,-576"/>
<text text-anchor="middle" x="729.5" y="-554.3" font-family="Times,serif" font-size="14.00" fill="#000000">Read C matrix :: cmat%read</text>
</g>
<!-- If C matrix loading required&#45;&gt;Read C matrix :: cmat%read -->
<g id="edge16" class="edge">
<title>If C matrix loading required&#45;&gt;Read C matrix :: cmat%read</title>
<path fill="none" stroke="#000000" d="M459.6035,-558C511.6207,-558 578.1903,-558 632.2004,-558"/>
<polygon fill="#000000" stroke="#000000" points="632.4794,-561.5001 642.4794,-558 632.4793,-554.5001 632.4794,-561.5001"/>
</g>
<!-- Copy namelist support radii into C matrix :: cmat%read -->
<g id="node19" class="node">
<title>Copy namelist support radii into C matrix :: cmat%read</title>
<polygon fill="none" stroke="#000000" points="891,-522 568,-522 568,-486 891,-486 891,-522"/>
<text text-anchor="middle" x="729.5" y="-500.3" font-family="Times,serif" font-size="14.00" fill="#000000">Copy namelist support radii into C matrix :: cmat%read</text>
</g>
<!-- If C matrix setting from namelist required&#45;&gt;Copy namelist support radii into C matrix :: cmat%read -->
<g id="edge18" class="edge">
<title>If C matrix setting from namelist required&#45;&gt;Copy namelist support radii into C matrix :: cmat%read</title>
<path fill="none" stroke="#000000" d="M498.3366,-504C517.5208,-504 537.6201,-504 557.6202,-504"/>
<polygon fill="#000000" stroke="#000000" points="557.7439,-507.5001 567.7439,-504 557.7438,-500.5001 557.7439,-507.5001"/>
</g>
<!-- Get C matrix from OOPS :: cmat%from_oops -->
<g id="node21" class="node">
<title>Get C matrix from OOPS :: cmat%from_oops</title>
<polygon fill="none" stroke="#000000" points="865,-468 594,-468 594,-432 865,-432 865,-468"/>
<text text-anchor="middle" x="729.5" y="-446.3" font-family="Times,serif" font-size="14.00" fill="#000000">Get C matrix from OOPS :: cmat%from_oops</text>
</g>
<!-- If parameters have been set from external code&#45;&gt;Get C matrix from OOPS :: cmat%from_oops -->
<g id="edge20" class="edge">
<title>If parameters have been set from external code&#45;&gt;Get C matrix from OOPS :: cmat%from_oops</title>
<path fill="none" stroke="#000000" d="M511.1913,-450C534.968,-450 559.7675,-450 583.7621,-450"/>
<polygon fill="#000000" stroke="#000000" points="583.991,-453.5001 593.9909,-450 583.9909,-446.5001 583.991,-453.5001"/>
</g>
<!-- Setup C matrix sampling :: cmat%from_oops -->
<g id="node22" class="node">
<title>Setup C matrix sampling :: cmat%from_oops</title>
<polygon fill="none" stroke="#000000" points="863,-414 596,-414 596,-378 863,-378 863,-414"/>
<text text-anchor="middle" x="729.5" y="-392.3" font-family="Times,serif" font-size="14.00" fill="#000000">Setup C matrix sampling :: cmat%from_oops</text>
</g>
<!-- If parameters have been set from external code&#45;&gt;Setup C matrix sampling :: cmat%from_oops -->
<g id="edge21" class="edge">
<title>If parameters have been set from external code&#45;&gt;Setup C matrix sampling :: cmat%from_oops</title>
<path fill="none" stroke="#000000" d="M488.9063,-431.9358C508.2935,-428.9255 528.2168,-425.8551 547,-423 562.9959,-420.5686 579.785,-418.0454 596.4316,-415.5613"/>
<polygon fill="#000000" stroke="#000000" points="597.3948,-418.9565 606.7697,-414.0209 596.363,-412.033 597.3948,-418.9565"/>
</g>
<!-- Write C matrix :: cmat%write -->
<g id="node23" class="node">
<title>Write C matrix :: cmat%write</title>
<polygon fill="none" stroke="#000000" points="820.5,-360 638.5,-360 638.5,-324 820.5,-324 820.5,-360"/>
<text text-anchor="middle" x="729.5" y="-338.3" font-family="Times,serif" font-size="14.00" fill="#000000">Write C matrix :: cmat%write</text>
</g>
<!-- If parameters have been set from external code&#45;&gt;Write C matrix :: cmat%write -->
<g id="edge22" class="edge">
<title>If parameters have been set from external code&#45;&gt;Write C matrix :: cmat%write</title>
<path fill="none" stroke="#000000" d="M495.0236,-431.9424C500.5972,-429.3307 505.9596,-426.3653 511,-423 534.989,-406.9835 522.6358,-384.4398 547,-369 570.9745,-353.8071 600.2195,-345.8973 628.2132,-342.0488"/>
<polygon fill="#000000" stroke="#000000" points="628.9511,-345.4851 638.458,-340.8087 628.1098,-338.5358 628.9511,-345.4851"/>
</g>
<!-- Run NICAS driver :: nicas%run_nicas -->
<g id="node25" class="node">
<title>Run NICAS driver :: nicas%run_nicas</title>
<polygon fill="none" stroke="#000000" points="843,-306 616,-306 616,-270 843,-270 843,-306"/>
<text text-anchor="middle" x="729.5" y="-284.3" font-family="Times,serif" font-size="14.00" fill="#000000">Run NICAS driver :: nicas%run_nicas</text>
</g>
<!-- If new NICAS required&#45;&gt;Run NICAS driver :: nicas%run_nicas -->
<g id="edge24" class="edge">
<title>If new NICAS required&#45;&gt;Run NICAS driver :: nicas%run_nicas</title>
<path fill="none" stroke="#000000" d="M446.7369,-392.388C468.7928,-388.5801 492.149,-381.5861 511,-369 534.989,-352.9835 522.6358,-330.4398 547,-315 564.6332,-303.8257 585.1175,-296.5912 605.858,-292.0146"/>
<polygon fill="#000000" stroke="#000000" points="606.6054,-295.4345 615.7211,-290.0352 605.2279,-288.5714 606.6054,-295.4345"/>
</g>
<!-- Read NICAS parameters :: nicas%read -->
<g id="node27" class="node">
<title>Read NICAS parameters :: nicas%read</title>
<polygon fill="none" stroke="#000000" points="844.5,-252 614.5,-252 614.5,-216 844.5,-216 844.5,-252"/>
<text text-anchor="middle" x="729.5" y="-230.3" font-family="Times,serif" font-size="14.00" fill="#000000">Read NICAS parameters :: nicas%read</text>
</g>
<!-- If NICAS loading required&#45;&gt;Read NICAS parameters :: nicas%read -->
<g id="edge26" class="edge">
<title>If NICAS loading required&#45;&gt;Read NICAS parameters :: nicas%read</title>
<path fill="none" stroke="#000000" d="M455.6387,-336.6842C474.9572,-332.6101 494.6692,-325.9034 511,-315 534.989,-298.9835 522.6358,-276.4398 547,-261 564.2047,-250.0973 584.1235,-242.9451 604.3464,-238.353"/>
<polygon fill="#000000" stroke="#000000" points="605.2028,-241.7501 614.2878,-236.2992 603.7865,-234.8949 605.2028,-241.7501"/>
</g>
<!-- Run NICAS tests driver :: nicas%run_nicas_tests -->
<g id="node29" class="node">
<title>Run NICAS tests driver :: nicas%run_nicas_tests</title>
<polygon fill="none" stroke="#000000" points="872,-198 587,-198 587,-162 872,-162 872,-198"/>
<text text-anchor="middle" x="729.5" y="-176.3" font-family="Times,serif" font-size="14.00" fill="#000000">Run NICAS tests driver :: nicas%run_nicas_tests</text>
</g>
<!-- If NICAS test required&#45;&gt;Run NICAS tests driver :: nicas%run_nicas_tests -->
<g id="edge28" class="edge">
<title>If NICAS test required&#45;&gt;Run NICAS tests driver :: nicas%run_nicas_tests</title>
<path fill="none" stroke="#000000" d="M444.6181,-284.7447C467.2894,-281.0232 491.5441,-273.9899 511,-261 534.989,-244.9835 522.6358,-222.4398 547,-207 556.321,-201.0932 566.4386,-196.2873 576.9696,-192.3929"/>
<polygon fill="#000000" stroke="#000000" points="578.406,-195.6013 586.7461,-189.0673 576.1517,-188.9743 578.406,-195.6013"/>
</g>
<!-- Run observation operator driver :: obsop%run_obsop -->
<g id="node31" class="node">
<title>Run observation operator driver :: obsop%run_obsop</title>
<polygon fill="none" stroke="#000000" points="883,-144 576,-144 576,-108 883,-108 883,-144"/>
<text text-anchor="middle" x="729.5" y="-122.3" font-family="Times,serif" font-size="14.00" fill="#000000">Run observation operator driver :: obsop%run_obsop</text>
</g>
<!-- If new observation operator required&#45;&gt;Run observation operator driver :: obsop%run_obsop -->
<g id="edge30" class="edge">
<title>If new observation operator required&#45;&gt;Run observation operator driver :: obsop%run_obsop</title>
<path fill="none" stroke="#000000" d="M482.3484,-221.1778C492.4843,-217.5007 502.2297,-212.8555 511,-207 534.989,-190.9835 522.6358,-168.4398 547,-153 553.1379,-149.1104 559.6212,-145.6981 566.3406,-142.7091"/>
<polygon fill="#000000" stroke="#000000" points="567.7185,-145.927 575.6393,-138.8906 565.0593,-139.4517 567.7185,-145.927"/>
</g>
<!-- Read observation operator parameters :: obsop%read -->
<g id="node33" class="node">
<title>Read observation operator parameters :: obsop%read</title>
<polygon fill="none" stroke="#000000" points="882.5,-90 576.5,-90 576.5,-54 882.5,-54 882.5,-90"/>
<text text-anchor="middle" x="729.5" y="-68.3" font-family="Times,serif" font-size="14.00" fill="#000000">Read observation operator parameters :: obsop%read</text>
</g>
<!-- If observation operator loading required&#45;&gt;Read observation operator parameters :: obsop%read -->
<g id="edge32" class="edge">
<title>If observation operator loading required&#45;&gt;Read observation operator parameters :: obsop%read</title>
<path fill="none" stroke="#000000" d="M491.3156,-163.6152C498.2221,-160.6162 504.8507,-157.1056 511,-153 534.989,-136.9835 522.6358,-114.4398 547,-99 553.2309,-95.0514 559.8178,-91.5948 566.6461,-88.5736"/>
<polygon fill="#000000" stroke="#000000" points="568.1594,-91.7363 576.0965,-84.7182 565.5153,-85.2549 568.1594,-91.7363"/>
</g>
<!-- Run observation operator tests driver :: obsop%run_obsop_tests -->
<g id="node35" class="node">
<title>Run observation operator tests driver :: obsop%run_obsop_tests</title>
<polygon fill="none" stroke="#000000" points="912,-36 547,-36 547,0 912,0 912,-36"/>
<text text-anchor="middle" x="729.5" y="-14.3" font-family="Times,serif" font-size="14.00" fill="#000000">Run observation operator tests driver :: obsop%run_obsop_tests</text>
</g>
<!-- If observation operator test required&#45;&gt;Run observation operator tests driver :: obsop%run_obsop_tests -->
<g id="edge34" class="edge">
<title>If observation operator test required&#45;&gt;Run observation operator tests driver :: obsop%run_obsop_tests</title>
<path fill="none" stroke="#000000" d="M480.246,-113.9248C491.1355,-110.1357 501.6249,-105.2594 511,-99 534.989,-82.9835 522.6358,-60.4398 547,-45 549.3292,-43.524 551.7081,-42.1167 554.1308,-40.7752"/>
<polygon fill="#000000" stroke="#000000" points="555.7713,-43.8675 563.0834,-36.2004 552.586,-37.6342 555.7713,-43.8675"/>
</g>
</g>
</svg>
