<?xml version="1.0" encoding="UTF-8" standalone="no"?>
<!DOCTYPE svg PUBLIC "-//W3C//DTD SVG 1.1//EN"
 "http://www.w3.org/Graphics/SVG/1.1/DTD/svg11.dtd">
<!-- Generated by graphviz version 2.40.1 (20161225.0304)
 -->
<!-- Title: callgraph Pages: 1 -->
<svg width="654pt" height="152pt"
 viewBox="0.00 0.00 654.00 152.00" xmlns="http://www.w3.org/2000/svg" xmlns:xlink="http://www.w3.org/1999/xlink">
<g id="graph0" class="graph" transform="scale(1 1) rotate(0) translate(4 148)">
<title>callgraph</title>
<polygon fill="#ffffff" stroke="transparent" points="-4,4 -4,-148 650,-148 650,4 -4,4"/>
<!-- External code -->
<g id="node1" class="node">
<title>External code</title>
<polygon fill="none" stroke="#000000" points="92,-90 0,-90 0,-54 92,-54 92,-90"/>
<text text-anchor="middle" x="46" y="-68.3" font-family="Times,serif" font-size="14.00" fill="#000000">External code</text>
</g>
<!-- If ensembles required -->
<g id="node2" class="node">
<title>If ensembles required</title>
<polygon fill="none" stroke="#000000" points="296,-144 161,-144 161,-108 296,-108 296,-144"/>
<text text-anchor="middle" x="228.5" y="-122.3" font-family="Times,serif" font-size="14.00" fill="#000000">If ensembles required</text>
</g>
<!-- External code&#45;&gt;If ensembles required -->
<g id="edge1" class="edge">
<title>External code&#45;&gt;If ensembles required</title>
<path fill="none" stroke="#000000" d="M92.2597,-87.7302C103.8871,-91.5464 116.3676,-95.5253 128,-99 135.4247,-101.2178 143.1826,-103.4504 150.9536,-105.6305"/>
<polygon fill="#000000" stroke="#000000" points="150.2078,-109.0558 160.7797,-108.3589 152.0807,-102.311 150.2078,-109.0558"/>
</g>
<!-- If setting parameters required -->
<g id="node4" class="node">
<title>If setting parameters required</title>
<polygon fill="none" stroke="#000000" points="317.5,-90 139.5,-90 139.5,-54 317.5,-54 317.5,-90"/>
<text text-anchor="middle" x="228.5" y="-68.3" font-family="Times,serif" font-size="14.00" fill="#000000">If setting parameters required</text>
</g>
<!-- External code&#45;&gt;If setting parameters required -->
<g id="edge3" class="edge">
<title>External code&#45;&gt;If setting parameters required</title>
<path fill="none" stroke="#000000" d="M92.0525,-72C103.4673,-72 116.1446,-72 129.0424,-72"/>
<polygon fill="#000000" stroke="#000000" points="129.4136,-75.5001 139.4136,-72 129.4135,-68.5001 129.4136,-75.5001"/>
</g>
<!-- Run drivers :: bump%run_drivers -->
<g id="node6" class="node">
<title>Run drivers :: bump%run_drivers</title>
<polygon fill="none" stroke="#000000" points="329,-36 128,-36 128,0 329,0 329,-36"/>
<text text-anchor="middle" x="228.5" y="-14.3" font-family="Times,serif" font-size="14.00" fill="#000000">Run drivers :: bump%run_drivers</text>
</g>
<!-- External code&#45;&gt;Run drivers :: bump%run_drivers -->
<g id="edge5" class="edge">
<title>External code&#45;&gt;Run drivers :: bump%run_drivers</title>
<path fill="none" stroke="#000000" d="M92.2597,-56.2698C103.8871,-52.4536 116.3676,-48.4747 128,-45 134.9622,-42.9203 142.2173,-40.8277 149.5015,-38.7775"/>
<polygon fill="#000000" stroke="#000000" points="150.7332,-42.0677 159.4277,-36.0133 148.8553,-35.3243 150.7332,-42.0677"/>
</g>
<!-- Add ensemble members :: bump%add_member -->
<g id="node3" class="node">
<title>Add ensemble members :: bump%add_member</title>
<polygon fill="none" stroke="#000000" points="646,-144 365,-144 365,-108 646,-108 646,-144"/>
<text text-anchor="middle" x="505.5" y="-122.3" font-family="Times,serif" font-size="14.00" fill="#000000">Add ensemble members :: bump%add_member</text>
</g>
<!-- If ensembles required&#45;&gt;Add ensemble members :: bump%add_member -->
<g id="edge2" class="edge">
<title>If ensembles required&#45;&gt;Add ensemble members :: bump%add_member</title>
<path fill="none" stroke="#000000" d="M296.2618,-126C314.2243,-126 334.3567,-126 354.8466,-126"/>
<polygon fill="#000000" stroke="#000000" points="354.9261,-129.5001 364.9261,-126 354.9261,-122.5001 354.9261,-129.5001"/>
</g>
<!-- Set parameters :: bump%set_parameter -->
<g id="node5" class="node">
<title>Set parameters :: bump%set_parameter</title>
<polygon fill="none" stroke="#000000" points="622,-90 389,-90 389,-54 622,-54 622,-90"/>
<text text-anchor="middle" x="505.5" y="-68.3" font-family="Times,serif" font-size="14.00" fill="#000000">Set parameters :: bump%set_parameter</text>
</g>
<!-- If setting parameters required&#45;&gt;Set parameters :: bump%set_parameter -->
<g id="edge4" class="edge">
<title>If setting parameters required&#45;&gt;Set parameters :: bump%set_parameter</title>
<path fill="none" stroke="#000000" d="M317.6693,-72C337.1052,-72 358.032,-72 378.6142,-72"/>
<polygon fill="#000000" stroke="#000000" points="378.6826,-75.5001 388.6825,-72 378.6825,-68.5001 378.6826,-75.5001"/>
</g>
</g>
</svg>
