<?xml version="1.0" encoding="UTF-8" standalone="no"?>
<!DOCTYPE svg PUBLIC "-//W3C//DTD SVG 1.1//EN"
 "http://www.w3.org/Graphics/SVG/1.1/DTD/svg11.dtd">
<!-- Generated by graphviz version 2.40.1 (20161225.0304)
 -->
<!-- Title: callgraph Pages: 1 -->
<svg width="1035pt" height="746pt"
 viewBox="0.00 0.00 1035.00 746.00" xmlns="http://www.w3.org/2000/svg" xmlns:xlink="http://www.w3.org/1999/xlink">
<g id="graph0" class="graph" transform="scale(1 1) rotate(0) translate(4 742)">
<title>callgraph</title>
<polygon fill="#ffffff" stroke="transparent" points="-4,4 -4,-742 1031,-742 1031,4 -4,4"/>
<!-- External code -->
<g id="node1" class="node">
<title>External code</title>
<polygon fill="none" stroke="#000000" points="92,-522 0,-522 0,-486 92,-486 92,-522"/>
<text text-anchor="middle" x="46" y="-500.3" font-family="Times,serif" font-size="14.00" fill="#000000">External code</text>
</g>
<!-- Initialize external namelist parameters -->
<g id="node2" class="node">
<title>Initialize external namelist parameters</title>
<polygon fill="none" stroke="#000000" points="354,-684 128,-684 128,-648 354,-648 354,-684"/>
<text text-anchor="middle" x="241" y="-662.3" font-family="Times,serif" font-size="14.00" fill="#000000">Initialize external namelist parameters</text>
</g>
<!-- External code&#45;&gt;Initialize external namelist parameters -->
<g id="edge1" class="edge">
<title>External code&#45;&gt;Initialize external namelist parameters</title>
<path fill="none" stroke="#000000" d="M67.9899,-522.2686C103.0472,-551.393 171.6635,-608.3974 211.133,-641.1874"/>
<polygon fill="#000000" stroke="#000000" points="209.1619,-644.1002 219.0904,-647.7982 213.6351,-638.7158 209.1619,-644.1002"/>
</g>
<!-- Online setup :: bump%setup_online -->
<g id="node5" class="node">
<title>Online setup :: bump%setup_online</title>
<polygon fill="none" stroke="#000000" points="347.5,-360 134.5,-360 134.5,-324 347.5,-324 347.5,-360"/>
<text text-anchor="middle" x="241" y="-338.3" font-family="Times,serif" font-size="14.00" fill="#000000">Online setup :: bump%setup_online</text>
</g>
<!-- External code&#45;&gt;Online setup :: bump%setup_online -->
<g id="edge4" class="edge">
<title>External code&#45;&gt;Online setup :: bump%setup_online</title>
<path fill="none" stroke="#000000" d="M67.9899,-485.7314C103.0472,-456.607 171.6635,-399.6026 211.133,-366.8126"/>
<polygon fill="#000000" stroke="#000000" points="213.6351,-369.2842 219.0904,-360.2018 209.1619,-363.8998 213.6351,-369.2842"/>
</g>
<!-- Initialize namelist :: nam%init -->
<g id="node3" class="node">
<title>Initialize namelist :: nam%init</title>
<polygon fill="none" stroke="#000000" points="645,-738 461,-738 461,-702 645,-702 645,-738"/>
<text text-anchor="middle" x="553" y="-716.3" font-family="Times,serif" font-size="14.00" fill="#000000">Initialize namelist :: nam%init</text>
</g>
<!-- Initialize external namelist parameters&#45;&gt;Initialize namelist :: nam%init -->
<g id="edge2" class="edge">
<title>Initialize external namelist parameters&#45;&gt;Initialize namelist :: nam%init</title>
<path fill="none" stroke="#000000" d="M339.1441,-684.0019C356.0958,-687.049 373.5518,-690.1476 390,-693 409.5839,-696.3962 430.5082,-699.932 450.6126,-703.283"/>
<polygon fill="#000000" stroke="#000000" points="450.2831,-706.7762 460.7218,-704.9641 451.4314,-699.871 450.2831,-706.7762"/>
</g>
<!-- Set external namelist parameters (e.g. from a JSON file) -->
<g id="node4" class="node">
<title>Set external namelist parameters (e.g. from a JSON file)</title>
<polygon fill="none" stroke="#000000" points="716,-684 390,-684 390,-648 716,-648 716,-684"/>
<text text-anchor="middle" x="553" y="-662.3" font-family="Times,serif" font-size="14.00" fill="#000000">Set external namelist parameters (e.g. from a JSON file)</text>
</g>
<!-- Initialize external namelist parameters&#45;&gt;Set external namelist parameters (e.g. from a JSON file) -->
<g id="edge3" class="edge">
<title>Initialize external namelist parameters&#45;&gt;Set external namelist parameters (e.g. from a JSON file)</title>
<path fill="none" stroke="#000000" d="M354.0803,-666C362.4784,-666 371.0564,-666 379.7063,-666"/>
<polygon fill="#000000" stroke="#000000" points="379.887,-669.5001 389.887,-666 379.8869,-662.5001 379.887,-669.5001"/>
</g>
<!-- Initialize MPL :: mpl%init -->
<g id="node6" class="node">
<title>Initialize MPL :: mpl%init</title>
<polygon fill="none" stroke="#000000" points="635,-630 471,-630 471,-594 635,-594 635,-630"/>
<text text-anchor="middle" x="553" y="-608.3" font-family="Times,serif" font-size="14.00" fill="#000000">Initialize MPL :: mpl%init</text>
</g>
<!-- Online setup :: bump%setup_online&#45;&gt;Initialize MPL :: mpl%init -->
<g id="edge5" class="edge">
<title>Online setup :: bump%setup_online&#45;&gt;Initialize MPL :: mpl%init</title>
<path fill="none" stroke="#000000" d="M246.2582,-360.0081C260.7029,-406.0111 305.6362,-528.2137 390,-585 410.705,-598.9368 436.1658,-606.5188 460.7574,-610.4559"/>
<polygon fill="#000000" stroke="#000000" points="460.4665,-613.9495 470.8578,-611.8827 461.4457,-607.0183 460.4665,-613.9495"/>
</g>
<!-- If namelist reading required -->
<g id="node7" class="node">
<title>If namelist reading required</title>
<polygon fill="none" stroke="#000000" points="637.5,-576 468.5,-576 468.5,-540 637.5,-540 637.5,-576"/>
<text text-anchor="middle" x="553" y="-554.3" font-family="Times,serif" font-size="14.00" fill="#000000">If namelist reading required</text>
</g>
<!-- Online setup :: bump%setup_online&#45;&gt;If namelist reading required -->
<g id="edge6" class="edge">
<title>Online setup :: bump%setup_online&#45;&gt;If namelist reading required</title>
<path fill="none" stroke="#000000" d="M249.5109,-360.2277C268.593,-398.8694 318.7739,-488.9151 390,-531 410.4201,-543.0655 434.6543,-550.1535 458.1084,-554.2208"/>
<polygon fill="#000000" stroke="#000000" points="457.6779,-557.696 468.0989,-555.7847 458.7606,-550.7802 457.6779,-557.696"/>
</g>
<!-- Set internal namelist parameters :: nam%setup_internal -->
<g id="node10" class="node">
<title>Set internal namelist parameters :: nam%setup_internal</title>
<polygon fill="none" stroke="#000000" points="713,-522 393,-522 393,-486 713,-486 713,-522"/>
<text text-anchor="middle" x="553" y="-500.3" font-family="Times,serif" font-size="14.00" fill="#000000">Set internal namelist parameters :: nam%setup_internal</text>
</g>
<!-- Online setup :: bump%setup_online&#45;&gt;Set internal namelist parameters :: nam%setup_internal -->
<g id="edge9" class="edge">
<title>Online setup :: bump%setup_online&#45;&gt;Set internal namelist parameters :: nam%setup_internal</title>
<path fill="none" stroke="#000000" d="M255.2164,-360.4246C279.3744,-390.2856 331.5415,-448.7506 390,-477 394.0314,-478.9481 398.1772,-480.7591 402.4084,-482.4423"/>
<polygon fill="#000000" stroke="#000000" points="401.2037,-485.7284 411.7966,-485.9269 403.6395,-479.1658 401.2037,-485.7284"/>
</g>
<!-- Initialize listing :: mpl%init_listing -->
<g id="node11" class="node">
<title>Initialize listing :: mpl%init_listing</title>
<polygon fill="none" stroke="#000000" points="657.5,-468 448.5,-468 448.5,-432 657.5,-432 657.5,-468"/>
<text text-anchor="middle" x="553" y="-446.3" font-family="Times,serif" font-size="14.00" fill="#000000">Initialize listing :: mpl%init_listing</text>
</g>
<!-- Online setup :: bump%setup_online&#45;&gt;Initialize listing :: mpl%init_listing -->
<g id="edge10" class="edge">
<title>Online setup :: bump%setup_online&#45;&gt;Initialize listing :: mpl%init_listing</title>
<path fill="none" stroke="#000000" d="M267.7354,-360.1267C296.6174,-378.828 344.6132,-407.4009 390,-423 405.2758,-428.2502 421.7182,-432.497 438.0748,-435.9279"/>
<polygon fill="#000000" stroke="#000000" points="437.7447,-439.4311 448.2369,-437.9603 439.1175,-432.567 437.7447,-439.4311"/>
</g>
<!-- Generic setup :: setup_generic -->
<g id="node12" class="node">
<title>Generic setup :: setup_generic</title>
<polygon fill="none" stroke="#000000" points="644,-414 462,-414 462,-378 644,-378 644,-414"/>
<text text-anchor="middle" x="553" y="-392.3" font-family="Times,serif" font-size="14.00" fill="#000000">Generic setup :: setup_generic</text>
</g>
<!-- Online setup :: bump%setup_online&#45;&gt;Generic setup :: setup_generic -->
<g id="edge11" class="edge">
<title>Online setup :: bump%setup_online&#45;&gt;Generic setup :: setup_generic</title>
<path fill="none" stroke="#000000" d="M339.1441,-360.0019C356.0958,-363.049 373.5518,-366.1476 390,-369 409.9162,-372.4538 431.2187,-376.052 451.6352,-379.4534"/>
<polygon fill="#000000" stroke="#000000" points="451.1382,-382.9187 461.5768,-381.1059 452.2861,-376.0135 451.1382,-382.9187"/>
</g>
<!-- Get coordinates from arguments :: geom%setup -->
<g id="node13" class="node">
<title>Get coordinates from arguments :: geom%setup</title>
<polygon fill="none" stroke="#000000" points="693,-360 413,-360 413,-324 693,-324 693,-360"/>
<text text-anchor="middle" x="553" y="-338.3" font-family="Times,serif" font-size="14.00" fill="#000000">Get coordinates from arguments :: geom%setup</text>
</g>
<!-- Online setup :: bump%setup_online&#45;&gt;Get coordinates from arguments :: geom%setup -->
<g id="edge12" class="edge">
<title>Online setup :: bump%setup_online&#45;&gt;Get coordinates from arguments :: geom%setup</title>
<path fill="none" stroke="#000000" d="M347.5001,-342C365.307,-342 384.0738,-342 402.7312,-342"/>
<polygon fill="#000000" stroke="#000000" points="402.774,-345.5001 412.7739,-342 402.7739,-338.5001 402.774,-345.5001"/>
</g>
<!-- Initialize geometry :: geom%setup -->
<g id="node14" class="node">
<title>Initialize geometry :: geom%setup</title>
<polygon fill="none" stroke="#000000" points="656,-306 450,-306 450,-270 656,-270 656,-306"/>
<text text-anchor="middle" x="553" y="-284.3" font-family="Times,serif" font-size="14.00" fill="#000000">Initialize geometry :: geom%setup</text>
</g>
<!-- Online setup :: bump%setup_online&#45;&gt;Initialize geometry :: geom%setup -->
<g id="edge13" class="edge">
<title>Online setup :: bump%setup_online&#45;&gt;Initialize geometry :: geom%setup</title>
<path fill="none" stroke="#000000" d="M339.1441,-323.9981C356.0958,-320.951 373.5518,-317.8524 390,-315 406.0323,-312.2197 422.963,-309.3459 439.6067,-306.5565"/>
<polygon fill="#000000" stroke="#000000" points="440.636,-309.933 449.922,-304.8321 439.4818,-303.0288 440.636,-309.933"/>
</g>
<!-- If fields regridding required -->
<g id="node15" class="node">
<title>If fields regridding required</title>
<polygon fill="none" stroke="#000000" points="637,-252 469,-252 469,-216 637,-216 637,-252"/>
<text text-anchor="middle" x="553" y="-230.3" font-family="Times,serif" font-size="14.00" fill="#000000">If fields regridding required</text>
</g>
<!-- Online setup :: bump%setup_online&#45;&gt;If fields regridding required -->
<g id="edge14" class="edge">
<title>Online setup :: bump%setup_online&#45;&gt;If fields regridding required</title>
<path fill="none" stroke="#000000" d="M267.7354,-323.8733C296.6174,-305.172 344.6132,-276.5991 390,-261 411.7396,-253.5283 435.842,-248.0886 458.6974,-244.1409"/>
<polygon fill="#000000" stroke="#000000" points="459.4524,-247.5638 468.7504,-242.4846 458.3144,-240.6569 459.4524,-247.5638"/>
</g>
<!-- Initialize block parameters :: bpar%alloc -->
<g id="node17" class="node">
<title>Initialize block parameters :: bpar%alloc</title>
<polygon fill="none" stroke="#000000" points="672.5,-198 433.5,-198 433.5,-162 672.5,-162 672.5,-198"/>
<text text-anchor="middle" x="553" y="-176.3" font-family="Times,serif" font-size="14.00" fill="#000000">Initialize block parameters :: bpar%alloc</text>
</g>
<!-- Online setup :: bump%setup_online&#45;&gt;Initialize block parameters :: bpar%alloc -->
<g id="edge16" class="edge">
<title>Online setup :: bump%setup_online&#45;&gt;Initialize block parameters :: bpar%alloc</title>
<path fill="none" stroke="#000000" d="M255.2164,-323.5754C279.3744,-293.7144 331.5415,-235.2494 390,-207 400.593,-201.8811 411.9758,-197.7093 423.6234,-194.3127"/>
<polygon fill="#000000" stroke="#000000" points="424.7271,-197.6397 433.4581,-191.638 422.89,-190.8851 424.7271,-197.6397"/>
</g>
<!-- Initialize ensemble 1 :: ens1%alloc -->
<g id="node18" class="node">
<title>Initialize ensemble 1 :: ens1%alloc</title>
<polygon fill="none" stroke="#000000" points="657.5,-144 448.5,-144 448.5,-108 657.5,-108 657.5,-144"/>
<text text-anchor="middle" x="553" y="-122.3" font-family="Times,serif" font-size="14.00" fill="#000000">Initialize ensemble 1 :: ens1%alloc</text>
</g>
<!-- Online setup :: bump%setup_online&#45;&gt;Initialize ensemble 1 :: ens1%alloc -->
<g id="edge17" class="edge">
<title>Online setup :: bump%setup_online&#45;&gt;Initialize ensemble 1 :: ens1%alloc</title>
<path fill="none" stroke="#000000" d="M249.5109,-323.7723C268.593,-285.1306 318.7739,-195.0849 390,-153 404.6572,-144.3396 421.2794,-138.2437 438.1677,-133.9885"/>
<polygon fill="#000000" stroke="#000000" points="439.1719,-137.3489 448.1292,-131.6904 437.5983,-130.528 439.1719,-137.3489"/>
</g>
<!-- Initialize ensemble 2 :: ens2%alloc -->
<g id="node19" class="node">
<title>Initialize ensemble 2 :: ens2%alloc</title>
<polygon fill="none" stroke="#000000" points="657.5,-90 448.5,-90 448.5,-54 657.5,-54 657.5,-90"/>
<text text-anchor="middle" x="553" y="-68.3" font-family="Times,serif" font-size="14.00" fill="#000000">Initialize ensemble 2 :: ens2%alloc</text>
</g>
<!-- Online setup :: bump%setup_online&#45;&gt;Initialize ensemble 2 :: ens2%alloc -->
<g id="edge18" class="edge">
<title>Online setup :: bump%setup_online&#45;&gt;Initialize ensemble 2 :: ens2%alloc</title>
<path fill="none" stroke="#000000" d="M246.2582,-323.9919C260.7029,-277.9889 305.6362,-155.7863 390,-99 404.4215,-89.2927 421.1502,-82.6684 438.2853,-78.2114"/>
<polygon fill="#000000" stroke="#000000" points="439.4739,-81.5274 448.4069,-75.8307 437.8711,-74.7134 439.4739,-81.5274"/>
</g>
<!-- If observation operator required -->
<g id="node20" class="node">
<title>If observation operator required</title>
<polygon fill="none" stroke="#000000" points="648,-36 458,-36 458,0 648,0 648,-36"/>
<text text-anchor="middle" x="553" y="-14.3" font-family="Times,serif" font-size="14.00" fill="#000000">If observation operator required</text>
</g>
<!-- Online setup :: bump%setup_online&#45;&gt;If observation operator required -->
<g id="edge19" class="edge">
<title>Online setup :: bump%setup_online&#45;&gt;If observation operator required</title>
<path fill="none" stroke="#000000" d="M244.2565,-323.6383C254.6858,-270.6789 292.469,-116.8576 390,-45 406.8459,-32.5885 427.3263,-25.058 448.0022,-20.6346"/>
<polygon fill="#000000" stroke="#000000" points="448.66,-24.0724 457.8266,-18.7598 447.3477,-17.1964 448.66,-24.0724"/>
</g>
<!-- Read namelist :: nam%read -->
<g id="node8" class="node">
<title>Read namelist :: nam%read</title>
<polygon fill="none" stroke="#000000" points="974,-603 805,-603 805,-567 974,-567 974,-603"/>
<text text-anchor="middle" x="889.5" y="-581.3" font-family="Times,serif" font-size="14.00" fill="#000000">Read namelist :: nam%read</text>
</g>
<!-- If namelist reading required&#45;&gt;Read namelist :: nam%read -->
<g id="edge7" class="edge">
<title>If namelist reading required&#45;&gt;Read namelist :: nam%read</title>
<path fill="none" stroke="#000000" d="M637.9132,-564.8132C685.7273,-568.6497 745.5545,-573.4501 794.8703,-577.4071"/>
<polygon fill="#000000" stroke="#000000" points="794.6579,-580.9012 804.9059,-578.2124 795.2179,-573.9237 794.6579,-580.9012"/>
</g>
<!-- Broadcast namelist :: nam%bcast -->
<g id="node9" class="node">
<title>Broadcast namelist :: nam%bcast</title>
<polygon fill="none" stroke="#000000" points="989.5,-549 789.5,-549 789.5,-513 989.5,-513 989.5,-549"/>
<text text-anchor="middle" x="889.5" y="-527.3" font-family="Times,serif" font-size="14.00" fill="#000000">Broadcast namelist :: nam%bcast</text>
</g>
<!-- If namelist reading required&#45;&gt;Broadcast namelist :: nam%bcast -->
<g id="edge8" class="edge">
<title>If namelist reading required&#45;&gt;Broadcast namelist :: nam%bcast</title>
<path fill="none" stroke="#000000" d="M637.9132,-551.1868C680.8115,-547.7447 733.3799,-543.5267 779.3511,-539.8381"/>
<polygon fill="#000000" stroke="#000000" points="779.6695,-543.3239 789.3575,-539.0352 779.1096,-536.3463 779.6695,-543.3239"/>
</g>
<!-- Initialize fields regridding :: io%grid_init -->
<g id="node16" class="node">
<title>Initialize fields regridding :: io%grid_init</title>
<polygon fill="none" stroke="#000000" points="1010.5,-252 768.5,-252 768.5,-216 1010.5,-216 1010.5,-252"/>
<text text-anchor="middle" x="889.5" y="-230.3" font-family="Times,serif" font-size="14.00" fill="#000000">Initialize fields regridding :: io%grid_init</text>
</g>
<!-- If fields regridding required&#45;&gt;Initialize fields regridding :: io%grid_init -->
<g id="edge15" class="edge">
<title>If fields regridding required&#45;&gt;Initialize fields regridding :: io%grid_init</title>
<path fill="none" stroke="#000000" d="M637.0451,-234C673.7321,-234 717.6157,-234 758.4274,-234"/>
<polygon fill="#000000" stroke="#000000" points="758.4541,-237.5001 768.4541,-234 758.454,-230.5001 758.4541,-237.5001"/>
</g>
<!-- Initialize observations locations :: obsop%from -->
<g id="node21" class="node">
<title>Initialize observations locations :: obsop%from</title>
<polygon fill="none" stroke="#000000" points="1027,-36 752,-36 752,0 1027,0 1027,-36"/>
<text text-anchor="middle" x="889.5" y="-14.3" font-family="Times,serif" font-size="14.00" fill="#000000">Initialize observations locations :: obsop%from</text>
</g>
<!-- If observation operator required&#45;&gt;Initialize observations locations :: obsop%from -->
<g id="edge20" class="edge">
<title>If observation operator required&#45;&gt;Initialize observations locations :: obsop%from</title>
<path fill="none" stroke="#000000" d="M648.0781,-18C677.1895,-18 709.9306,-18 741.686,-18"/>
<polygon fill="#000000" stroke="#000000" points="741.9557,-21.5001 751.9557,-18 741.9557,-14.5001 741.9557,-21.5001"/>
</g>
</g>
</svg>
